<svg width="48" height="48" viewBox="0 0 48 48" fill="none" xmlns="http://www.w3.org/2000/svg">
<rect width="48" height="48" rx="10" fill="#C9E4DE" fill-opacity="0.5"/>
<g clip-path="url(#clip0_6_156)">
<path fill-rule="evenodd" clip-rule="evenodd" d="M35.0795 28.6148C35.0795 33.7097 30.4629 36 24.0001 36C17.5372 36 12.9207 33.7097 12.9207 28.6508C12.9207 23.112 15.6909 20.3057 21.2298 17.4994L19.2687 13.8463C19.1516 13.6633 19.0865 13.452 19.0801 13.2349C19.0738 13.0178 19.1265 12.803 19.2326 12.6135C19.3387 12.424 19.4942 12.2669 19.6826 12.1588C19.871 12.0507 20.0852 11.9959 20.3024 12H28.1315C28.3351 12.0052 28.5339 12.0621 28.7094 12.1654C28.8849 12.2686 29.0312 12.4148 29.1346 12.5902C29.238 12.7656 29.295 12.9645 29.3004 13.168C29.3058 13.3715 29.2592 13.5731 29.1652 13.7537L26.7704 17.4994C32.3075 20.268 35.0795 23.0743 35.0795 28.6148ZM25.0715 20.3777C25.0715 20.0935 24.9586 19.821 24.7577 19.6201C24.5568 19.4191 24.2842 19.3063 24.0001 19.3063C23.7159 19.3063 23.4434 19.4191 23.2425 19.6201C23.0415 19.821 22.9287 20.0935 22.9287 20.3777V21.4525C22.2025 21.4805 21.5114 21.7727 20.9854 22.2741C20.4594 22.7755 20.1345 23.4517 20.0718 24.1758C20.009 24.8998 20.2128 25.6218 20.6448 26.2062C21.0768 26.7906 21.7072 27.1972 22.4178 27.3497L24.9429 27.9017C25.2018 27.9574 25.4308 28.107 25.5858 28.3216C25.7409 28.5361 25.8111 28.8005 25.7827 29.0637C25.7544 29.327 25.6296 29.5704 25.4325 29.7471C25.2353 29.9237 24.9797 30.0212 24.7149 30.0205H23.2852C23.0636 30.0209 22.8473 29.9525 22.6661 29.8248C22.485 29.697 22.3479 29.5163 22.2738 29.3074C22.2305 29.1703 22.1601 29.0434 22.0667 28.9341C21.9734 28.8248 21.859 28.7355 21.7304 28.6713C21.6018 28.6071 21.4615 28.5695 21.3181 28.5607C21.1746 28.5518 21.0309 28.5719 20.8953 28.6198C20.7598 28.6676 20.6353 28.7423 20.5292 28.8393C20.4231 28.9362 20.3376 29.0536 20.2778 29.1843C20.218 29.3149 20.1851 29.4563 20.1811 29.6C20.1771 29.7437 20.202 29.8867 20.2544 30.0205C20.4564 30.5896 20.8142 31.0904 21.287 31.4659C21.7599 31.8414 22.3287 32.0766 22.9287 32.1445V33.2348C22.9287 33.519 23.0415 33.7915 23.2425 33.9924C23.4434 34.1934 23.7159 34.3063 24.0001 34.3063C24.2842 34.3063 24.5568 34.1934 24.7577 33.9924C24.9586 33.7915 25.0715 33.519 25.0715 33.2348V32.1445C25.8279 32.0586 26.5293 31.707 27.0509 31.1524C27.5725 30.5979 27.8804 29.8762 27.9199 29.116C27.9594 28.3557 27.7279 27.606 27.2666 27.0004C26.8053 26.3948 26.1441 25.9725 25.4007 25.8085L22.8755 25.2565C22.6706 25.2146 22.4888 25.0978 22.3655 24.9288C22.2422 24.7599 22.1863 24.5511 22.2088 24.3432C22.2313 24.1353 22.3306 23.9433 22.4872 23.8046C22.6438 23.666 22.8464 23.5908 23.0555 23.5937H24.7149C24.9369 23.5921 25.1538 23.66 25.3352 23.7879C25.5165 23.9158 25.6533 24.0972 25.7264 24.3068C25.8261 24.5681 26.024 24.78 26.2778 24.8973C26.5316 25.0147 26.8213 25.0281 27.0849 24.9348C27.3485 24.8415 27.5652 24.6488 27.6887 24.3979C27.8122 24.147 27.8327 23.8578 27.7458 23.592C27.5453 23.0222 27.1878 22.5207 26.7147 22.1452C26.2415 21.7697 25.6719 21.5356 25.0715 21.4697V20.3777Z" fill="#1D4A54"/>
</g>
<defs>
<clipPath id="clip0_6_156">
<rect width="24" height="24" fill="white" transform="translate(12 12)"/>
</clipPath>
</defs>
</svg>
