<svg width="48" height="48" viewBox="0 0 48 48" fill="none" xmlns="http://www.w3.org/2000/svg">
<rect width="48" height="48" rx="10" fill="#C9E4DE" fill-opacity="0.5"/>
<path d="M32.3766 15H28.35C27.975 15 27.6141 15.1406 27.3375 15.3938L22.7297 19.6125C22.725 19.6172 22.7203 19.6266 22.7156 19.6313C21.9375 20.3625 21.9516 21.5297 22.6172 22.2563C23.2125 22.9078 24.4641 23.0813 25.2469 22.3828C25.2516 22.3781 25.2609 22.3781 25.2656 22.3734L29.0109 18.9422C29.3156 18.6656 29.7938 18.6844 30.0703 18.9891C30.3516 19.2938 30.3281 19.7672 30.0234 20.0484L28.8 21.1688L35.625 26.7094C35.7609 26.8219 35.8828 26.9438 35.9953 27.0703V18L33.4359 15.4406C33.1594 15.1594 32.775 15 32.3766 15ZM37.5 18.0094V28.5047C37.5 29.3344 38.1703 30.0047 39 30.0047H42V18.0094H37.5ZM39.75 28.5047C39.3375 28.5047 39 28.1672 39 27.7547C39 27.3422 39.3375 27.0047 39.75 27.0047C40.1625 27.0047 40.5 27.3422 40.5 27.7547C40.5 28.1672 40.1625 28.5047 39.75 28.5047ZM12 30H15C15.8297 30 16.5 29.3297 16.5 28.5V18.0094H12V30ZM14.25 27.0047C14.6625 27.0047 15 27.3422 15 27.7547C15 28.1672 14.6625 28.5047 14.25 28.5047C13.8375 28.5047 13.5 28.1672 13.5 27.7547C13.5 27.3375 13.8375 27.0047 14.25 27.0047ZM34.6828 27.8766L27.6844 22.1953L26.2781 23.4844C24.8859 24.7547 22.7531 24.6328 21.5109 23.2781C20.25 21.9 20.3484 19.7672 21.7172 18.5109L25.5516 15H21.6234C21.225 15 20.8453 15.1594 20.5641 15.4406L18 18V28.4953H18.8578L23.1 32.3344C24.3844 33.3797 26.2734 33.1828 27.3187 31.8984L27.3281 31.8891L28.1672 32.6156C28.9125 33.225 30.0141 33.1078 30.6188 32.3625L32.0906 30.5531L32.3438 30.7594C32.9859 31.2797 33.9328 31.1859 34.4531 30.5391L34.8984 29.9906C35.4234 29.3437 35.325 28.4016 34.6828 27.8766Z" fill="#1D4A54"/>
</svg>
