<svg width="20" height="20" viewBox="0 0 20 20" fill="none" xmlns="http://www.w3.org/2000/svg">
<path d="M10 7.91641C9.58794 7.91656 9.18517 8.03889 8.84263 8.26793C8.50009 8.49698 8.23315 8.82244 8.07557 9.20318C7.91798 9.58393 7.87683 10.0028 7.95732 10.407C8.0378 10.8111 8.23631 11.1823 8.52773 11.4736C8.81916 11.7649 9.19042 11.9633 9.59458 12.0436C9.99874 12.1239 10.4176 12.0826 10.7983 11.9249C11.179 11.7672 11.5044 11.5001 11.7333 11.1575C11.9622 10.8149 12.0844 10.4121 12.0844 10C12.084 9.44739 11.8642 8.91754 11.4734 8.52686C11.0825 8.13618 10.5526 7.91661 10 7.91641ZM14.8715 6.31484C14.7654 6.04603 14.6052 5.80188 14.4009 5.59754C14.1966 5.3932 13.9524 5.23302 13.6836 5.12695C12.8633 4.80312 10.9102 4.87578 10 4.87578C9.08984 4.87578 7.13867 4.80039 6.31602 5.12695C6.0472 5.23302 5.80305 5.3932 5.59871 5.59754C5.39437 5.80188 5.2342 6.04603 5.12812 6.31484C4.80469 7.13516 4.87695 9.09023 4.87695 9.99961C4.87695 10.909 4.80469 12.8617 5.12969 13.6848C5.23576 13.9536 5.39593 14.1977 5.60028 14.4021C5.80462 14.6064 6.04877 14.7666 6.31758 14.8727C7.13789 15.1965 9.09102 15.1238 10.0016 15.1238C10.9121 15.1238 12.8625 15.1992 13.6852 14.8727C13.954 14.7666 14.1981 14.6064 14.4025 14.4021C14.6068 14.1977 14.767 13.9536 14.873 13.6848C15.1992 12.8645 15.1242 10.9094 15.1242 10C15.1242 9.09062 15.1992 7.13828 14.873 6.31523L14.8715 6.31484ZM10 13.2031C9.36648 13.2031 8.74719 13.0153 8.22044 12.6633C7.69369 12.3113 7.28314 11.8111 7.0407 11.2258C6.79826 10.6405 6.73483 9.99645 6.85842 9.3751C6.98202 8.75376 7.28708 8.18301 7.73505 7.73505C8.18301 7.28708 8.75376 6.98202 9.3751 6.85842C9.99645 6.73483 10.6405 6.79826 11.2258 7.0407C11.8111 7.28314 12.3113 7.69369 12.6633 8.22044C13.0153 8.74719 13.2031 9.36648 13.2031 10C13.2036 10.4208 13.1211 10.8375 12.9603 11.2264C12.7996 11.6152 12.5636 11.9686 12.2661 12.2661C11.9686 12.5636 11.6152 12.7996 11.2264 12.9603C10.8375 13.1211 10.4208 13.2036 10 13.2031ZM13.3352 7.41016C13.1873 7.41023 13.0427 7.36645 12.9197 7.28434C12.7967 7.20224 12.7008 7.0855 12.6441 6.94889C12.5875 6.81228 12.5726 6.66194 12.6014 6.51688C12.6302 6.37182 12.7014 6.23857 12.806 6.13397C12.9105 6.02936 13.0437 5.95812 13.1888 5.92924C13.3338 5.90036 13.4842 5.91514 13.6208 5.97172C13.7574 6.0283 13.8742 6.12412 13.9564 6.24708C14.0386 6.37004 14.0824 6.51461 14.0824 6.6625C14.0828 6.76071 14.0639 6.85803 14.0266 6.94889C13.9893 7.03974 13.9344 7.12234 13.8651 7.19195C13.7959 7.26156 13.7135 7.3168 13.6228 7.35452C13.5322 7.39223 13.4349 7.41167 13.3367 7.41172L13.3352 7.41016ZM16.875 1.25H3.125C2.62772 1.25 2.15081 1.44754 1.79917 1.79917C1.44754 2.15081 1.25 2.62772 1.25 3.125L1.25 16.875C1.25 17.3723 1.44754 17.8492 1.79917 18.2008C2.15081 18.5525 2.62772 18.75 3.125 18.75H16.875C17.3723 18.75 17.8492 18.5525 18.2008 18.2008C18.5525 17.8492 18.75 17.3723 18.75 16.875V3.125C18.75 2.62772 18.5525 2.15081 18.2008 1.79917C17.8492 1.44754 17.3723 1.25 16.875 1.25ZM16.2063 12.5781C16.1559 13.5793 15.9273 14.4664 15.1965 15.1953C14.4656 15.9242 13.5793 16.1574 12.5793 16.2051C11.5477 16.2633 8.45469 16.2633 7.42305 16.2051C6.42188 16.1547 5.53789 15.9258 4.80586 15.1953C4.07383 14.4648 3.84375 13.5773 3.79609 12.5781C3.73789 11.5461 3.73789 8.45273 3.79609 7.42188C3.84648 6.4207 4.07227 5.53359 4.80586 4.80469C5.53945 4.07578 6.42578 3.84531 7.42305 3.79766C8.45469 3.73945 11.5477 3.73945 12.5793 3.79766C13.5805 3.84805 14.4672 4.07695 15.1965 4.80742C15.9258 5.53789 16.1586 6.42539 16.2063 7.42656C16.2645 8.45469 16.2645 11.5453 16.2063 12.5781Z" fill="white"/>
</svg>
