<svg width="14" height="22" viewBox="0 0 14 22" fill="none" xmlns="http://www.w3.org/2000/svg">
<path fill-rule="evenodd" clip-rule="evenodd" d="M9.00005 1.00002C9.00016 0.780188 8.92783 0.566445 8.79425 0.391854C8.66067 0.217264 8.47328 0.091556 8.26107 0.0341769C8.04885 -0.0232023 7.82365 -0.00905515 7.62028 0.0744299C7.41692 0.157915 7.24674 0.306085 7.13605 0.49602L0.136052 12.496C0.0473714 12.648 0.000358931 12.8207 -0.000238377 12.9966C-0.000835685 13.1726 0.045003 13.3456 0.13265 13.4981C0.220297 13.6507 0.346649 13.7775 0.498947 13.8656C0.651245 13.9537 0.824098 14.0001 1.00005 14H5.00005V21C4.99994 21.2199 5.07227 21.4336 5.20585 21.6082C5.33944 21.7828 5.52683 21.9085 5.73904 21.9659C5.95125 22.0232 6.17646 22.0091 6.37982 21.9256C6.58318 21.8421 6.75337 21.694 6.86405 21.504L13.8641 9.50402C13.9527 9.35205 13.9997 9.17937 14.0003 9.00342C14.0009 8.82746 13.9551 8.65447 13.8675 8.5019C13.7798 8.34933 13.6535 8.22258 13.5012 8.13446C13.3489 8.04634 13.176 7.99997 13.0001 8.00002H9.00005V1.00002Z" fill="#1F2937"/>
</svg>
