<svg width="25" height="26" viewBox="0 0 25 26" fill="none" xmlns="http://www.w3.org/2000/svg">
<g clip-path="url(#clip0_5_140)">
<path d="M12.4495 6.39795C10.491 6.3982 8.55054 7.23995 8.75454 8.92195L9.25454 12.5779C9.34229 13.2212 9.77704 14.2499 10.4263 14.2499H10.4725L11.0043 20.3827C11.0273 20.6587 11.2273 20.8827 11.5043 20.8827H13.5043C13.7813 20.8827 13.9813 20.6587 14.0043 20.3827L14.536 14.2499H14.5825C15.2318 14.2499 15.6663 13.2212 15.7543 12.5782L16.2543 8.9217C16.3853 7.23845 14.4083 6.39745 12.4495 6.39795Z" fill="#1F2937"/>
<path d="M12.5059 13.2271L12.4939 13.2586C12.4979 13.2491 12.5006 13.2393 12.5046 13.2298L12.5059 13.2271Z" fill="#1F2937"/>
<path d="M12.5 5.75C13.9497 5.75 15.125 4.57475 15.125 3.125C15.125 1.67525 13.9497 0.5 12.5 0.5C11.0503 0.5 9.875 1.67525 9.875 3.125C9.875 4.57475 11.0503 5.75 12.5 5.75Z" fill="#1F2937"/>
<path d="M15.2305 17.7729C15.2093 18.0159 15.1867 18.2584 15.1655 18.5014C17.4035 18.8174 19.0625 19.5344 19.25 20.4214C19.5292 21.7404 15.2145 22.3339 12.435 22.3062C9.6555 22.2784 5.42025 21.7404 5.7905 20.4212C6.0335 19.5554 7.6685 18.8527 9.848 18.5254C9.82625 18.2817 9.8015 18.0379 9.7805 17.7944C6.979 18.1034 4.645 18.8642 3.7125 19.8559H0.55725L0 21.0117H3.2915C3.54725 22.3717 6.39825 23.5457 10.475 23.8422L10.3355 25.4999H14.3705L14.33 23.8424C18.4275 23.5457 21.3592 22.3717 21.7085 21.0117H25L24.5225 19.8559H21.3673C20.4815 18.8392 18.1052 18.0659 15.2305 17.7729Z" fill="#1F2937"/>
</g>
<defs>
<clipPath id="clip0_5_140">
<rect width="25" height="25" fill="white" transform="translate(0 0.5)"/>
</clipPath>
</defs>
</svg>
