<svg width="862" height="281" viewBox="0 0 862 281" fill="none" xmlns="http://www.w3.org/2000/svg">
<path d="M225.756 225.756L112.878 280.943L0 225.756V0L225.756 59.141V225.756Z" fill="url(#paint0_linear_121_71)"/>
<path d="M0 46.4189L118.869 183.22L104.695 125.645L165.891 119.4L0 46.4189Z" fill="#141414"/>
<path d="M849.251 206.04C845.74 206.04 842.736 204.839 840.241 202.436C837.746 199.941 836.498 196.984 836.498 193.564C836.498 190.053 837.746 187.095 840.241 184.693C842.736 182.197 845.74 180.95 849.251 180.95C852.671 180.95 855.628 182.197 858.123 184.693C860.711 187.095 862.005 190.053 862.005 193.564C862.005 196.984 860.711 199.941 858.123 202.436C855.628 204.839 852.671 206.04 849.251 206.04Z" fill="#1C907B"/>
<path d="M782.857 134.926H830.544V152.67H782.857V134.926ZM817.375 204.238H796.027V113.439H817.375V204.238Z" fill="#141414"/>
<path d="M721.481 204.238H701.381V99.7161H722.729V142.967C724.854 139.825 727.996 137.329 732.155 135.481C736.406 133.54 741.027 132.57 746.017 132.57C752.487 132.57 758.078 134.141 762.791 137.283C767.596 140.425 771.293 144.815 773.881 150.452C776.468 156.09 777.762 162.697 777.762 170.275C777.762 177.391 776.33 183.676 773.465 189.128C770.692 194.488 766.765 198.647 761.682 201.604C756.691 204.561 750.915 206.04 744.354 206.04C739.548 206.04 735.159 205.07 731.185 203.129C727.303 201.096 724.438 198.508 722.59 195.366L721.481 204.238ZM722.867 169.166C722.867 172.586 723.561 175.635 724.947 178.316C726.425 180.903 728.412 182.936 730.908 184.415C733.495 185.801 736.452 186.494 739.779 186.494C743.199 186.494 746.11 185.755 748.513 184.276C751.008 182.798 752.902 180.765 754.196 178.177C755.582 175.589 756.276 172.586 756.276 169.166C756.276 165.747 755.582 162.744 754.196 160.156C752.902 157.568 751.008 155.535 748.513 154.057C746.11 152.578 743.199 151.839 739.779 151.839C736.452 151.839 733.495 152.578 730.908 154.057C728.412 155.443 726.425 157.43 724.947 160.017C723.561 162.605 722.867 165.655 722.867 169.166Z" fill="#141414"/>
<path d="M653.806 206.041C646.875 206.041 640.683 204.469 635.23 201.327C629.87 198.185 625.619 193.888 622.477 188.435C619.427 182.891 617.902 176.56 617.902 169.444C617.902 162.236 619.381 155.905 622.338 150.453C625.388 144.908 629.593 140.564 634.953 137.422C640.313 134.28 646.459 132.709 653.39 132.709C660.691 132.709 666.975 134.234 672.243 137.284C677.51 140.241 681.576 144.492 684.441 150.037C687.306 155.489 688.739 162.005 688.739 169.583V174.989L629.131 175.266L629.408 162.097H667.529C667.529 158.4 666.282 155.489 663.787 153.364C661.291 151.146 657.872 150.037 653.528 150.037C649.924 150.037 646.967 150.73 644.657 152.116C642.439 153.502 640.775 155.674 639.666 158.631C638.557 161.496 638.003 165.193 638.003 169.721C638.003 176.19 639.297 180.996 641.884 184.138C644.564 187.188 648.677 188.713 654.222 188.713C658.288 188.713 661.661 188.02 664.341 186.633C667.021 185.247 668.731 183.306 669.47 180.811H689.016C687.815 188.482 684.026 194.627 677.649 199.248C671.272 203.776 663.324 206.041 653.806 206.041Z" fill="#141414"/>
<path d="M562.086 206.04C555.432 206.04 549.656 204.561 544.758 201.604C539.86 198.647 536.025 194.488 533.252 189.128C530.572 183.676 529.232 177.299 529.232 169.998C529.232 162.605 530.619 156.136 533.391 150.591C536.164 144.954 540.091 140.564 545.174 137.422C550.349 134.28 556.449 132.709 563.472 132.709C567.816 132.709 571.836 133.494 575.533 135.065C579.322 136.636 582.233 138.716 584.266 141.303V99.7161H605.614V204.238H585.513L584.404 195.366C582.556 198.508 579.599 201.096 575.533 203.129C571.559 205.07 567.077 206.04 562.086 206.04ZM567.215 186.494C570.542 186.494 573.453 185.801 575.948 184.415C578.536 182.936 580.523 180.903 581.909 178.316C583.388 175.635 584.127 172.586 584.127 169.166C584.127 165.655 583.388 162.605 581.909 160.017C580.523 157.43 578.536 155.443 575.948 154.057C573.453 152.578 570.542 151.839 567.215 151.839C563.888 151.839 560.977 152.578 558.482 154.057C555.987 155.535 554.046 157.568 552.66 160.156C551.366 162.744 550.719 165.747 550.719 169.166C550.719 172.586 551.366 175.589 552.66 178.177C554.046 180.765 555.987 182.798 558.482 184.276C560.977 185.755 563.888 186.494 567.215 186.494Z" fill="#141414"/>
<path d="M516.959 204.238H495.611V99.7161H516.959V204.238Z" fill="#141414"/>
<path d="M479.596 204.238H458.248V99.7161H479.596V204.238Z" fill="#141414"/>
<path d="M420.878 134.926H442.226V204.238H422.126L420.739 196.475C418.614 199.34 415.564 201.65 411.59 203.406C407.709 205.162 403.689 206.04 399.53 206.04C391.675 206.04 385.437 203.591 380.816 198.693C376.288 193.702 374.023 186.956 374.023 178.454V134.926H395.371V170.691C395.371 176.328 396.388 180.487 398.421 183.167C400.454 185.755 403.643 187.049 407.986 187.049C412.607 187.049 415.888 185.801 417.828 183.306C419.861 180.718 420.878 176.606 420.878 170.968V134.926Z" fill="#141414"/>
<path d="M290.695 204.238H268.516V101.657H290.695L340.877 177.345H333.946V101.657H356.125V204.238H333.946L283.764 128.688H290.695V204.238Z" fill="#141414"/>
<defs>
<linearGradient id="paint0_linear_121_71" x1="112.878" y1="0" x2="112.878" y2="280.943" gradientUnits="userSpaceOnUse">
<stop stop-color="#1ACDAD"/>
<stop offset="1" stop-color="#1D7767"/>
</linearGradient>
</defs>
</svg>
