<svg width="32" height="32" viewBox="0 0 32 32" fill="none" xmlns="http://www.w3.org/2000/svg">
<g filter="url(#filter0_i_4_161)">
<path d="M10.8109 12.0813V10.7463H6.91162C6.86189 10.7463 6.8142 10.7661 6.77904 10.8013C6.74388 10.8364 6.72412 10.8841 6.72412 10.9338V10.9563C6.72412 11.2547 6.84265 11.5409 7.05363 11.7518C7.2646 11.9628 7.55075 12.0813 7.84912 12.0813H10.8109Z" fill="#CBC8C7"/>
</g>
<g filter="url(#filter1_i_4_161)">
<path d="M10.8108 13.402V12.0813H7.9458C7.8423 12.0813 7.7583 12.1638 7.7583 12.2665V12.289C7.7583 12.904 8.2623 13.402 8.8833 13.402H10.8108Z" fill="#BDBFBD"/>
</g>
<g filter="url(#filter2_i_4_161)">
<path d="M5.93726 9.42554C5.88753 9.42554 5.83984 9.44529 5.80467 9.48045C5.76951 9.51562 5.74976 9.56331 5.74976 9.61304V9.63554C5.74976 9.93391 5.86828 10.2201 6.07926 10.431C6.29024 10.642 6.57639 10.7605 6.87476 10.7605H10.0998C10.2648 10.7605 10.3998 10.8955 10.3998 11.0605V13.027C10.3998 13.1265 10.4393 13.2219 10.5096 13.2922C10.5799 13.3625 10.6753 13.402 10.7748 13.402H12.3378C12.8651 13.402 13.3708 13.1926 13.7437 12.8197C14.1165 12.4468 14.326 11.9411 14.326 11.4138C14.326 10.8865 14.1165 10.3808 13.7437 10.0079C13.3708 9.63501 12.8651 9.42554 12.3378 9.42554H5.93726Z" fill="#D6D2D1"/>
<path d="M5.93726 9.42554C5.88753 9.42554 5.83984 9.44529 5.80467 9.48045C5.76951 9.51562 5.74976 9.56331 5.74976 9.61304V9.63554C5.74976 9.93391 5.86828 10.2201 6.07926 10.431C6.29024 10.642 6.57639 10.7605 6.87476 10.7605H10.0998C10.2648 10.7605 10.3998 10.8955 10.3998 11.0605V13.027C10.3998 13.1265 10.4393 13.2219 10.5096 13.2922C10.5799 13.3625 10.6753 13.402 10.7748 13.402H12.3378C12.8651 13.402 13.3708 13.1926 13.7437 12.8197C14.1165 12.4468 14.326 11.9411 14.326 11.4138C14.326 10.8865 14.1165 10.3808 13.7437 10.0079C13.3708 9.63501 12.8651 9.42554 12.3378 9.42554H5.93726Z" fill="url(#paint0_radial_4_161)"/>
</g>
<path d="M17.77 7.73586L8.71726 16.7886C8.0729 17.433 8.0729 18.4777 8.71726 19.122L13.8599 24.2647C14.5042 24.909 15.549 24.909 16.1933 24.2647L25.2461 15.2119C25.8904 14.5676 25.8904 13.5228 25.2461 12.8785L20.1034 7.73586C19.4591 7.0915 18.4144 7.0915 17.77 7.73586Z" fill="url(#paint1_linear_4_161)"/>
<path d="M17.77 7.73586L8.71726 16.7886C8.0729 17.433 8.0729 18.4777 8.71726 19.122L13.8599 24.2647C14.5042 24.909 15.549 24.909 16.1933 24.2647L25.2461 15.2119C25.8904 14.5676 25.8904 13.5228 25.2461 12.8785L20.1034 7.73586C19.4591 7.0915 18.4144 7.0915 17.77 7.73586Z" fill="url(#paint2_linear_4_161)"/>
<path d="M17.77 7.73586L8.71726 16.7886C8.0729 17.433 8.0729 18.4777 8.71726 19.122L13.8599 24.2647C14.5042 24.909 15.549 24.909 16.1933 24.2647L25.2461 15.2119C25.8904 14.5676 25.8904 13.5228 25.2461 12.8785L20.1034 7.73586C19.4591 7.0915 18.4144 7.0915 17.77 7.73586Z" fill="url(#paint3_linear_4_161)"/>
<path d="M17.77 7.73586L8.71726 16.7886C8.0729 17.433 8.0729 18.4777 8.71726 19.122L13.8599 24.2647C14.5042 24.909 15.549 24.909 16.1933 24.2647L25.2461 15.2119C25.8904 14.5676 25.8904 13.5228 25.2461 12.8785L20.1034 7.73586C19.4591 7.0915 18.4144 7.0915 17.77 7.73586Z" fill="url(#paint4_radial_4_161)"/>
<path d="M17.77 7.73586L8.71726 16.7886C8.0729 17.433 8.0729 18.4777 8.71726 19.122L13.8599 24.2647C14.5042 24.909 15.549 24.909 16.1933 24.2647L25.2461 15.2119C25.8904 14.5676 25.8904 13.5228 25.2461 12.8785L20.1034 7.73586C19.4591 7.0915 18.4144 7.0915 17.77 7.73586Z" fill="url(#paint5_radial_4_161)"/>
<path d="M16.3 6.26662L7.24729 15.3194C6.60293 15.9637 6.60293 17.0084 7.24729 17.6528L12.3899 22.7954C13.0343 23.4398 14.079 23.4398 14.7234 22.7954L23.7761 13.7427C24.4205 13.0983 24.4205 12.0536 23.7761 11.4092L18.6335 6.26662C17.9891 5.62226 16.9444 5.62226 16.3 6.26662Z" fill="url(#paint6_radial_4_161)"/>
<g filter="url(#filter3_iii_4_161)">
<path fill-rule="evenodd" clip-rule="evenodd" d="M17.1669 7.13733L8.11819 16.1853C8.03712 16.2668 7.99162 16.3771 7.99162 16.4921C7.99162 16.607 8.03712 16.7173 8.11819 16.7988L13.2429 21.9236C13.3244 22.0044 13.4345 22.0498 13.5493 22.0498C13.6641 22.0498 13.7742 22.0044 13.8557 21.9236L22.9037 12.8756C22.9848 12.7941 23.0303 12.6838 23.0303 12.5688C23.0303 12.4539 22.9848 12.3436 22.9037 12.2621L17.7789 7.13733C17.6974 7.05626 17.5871 7.01076 17.4722 7.01076C17.3572 7.01076 17.2469 7.05626 17.1654 7.13733M7.81144 15.8786C7.64876 16.0413 7.55737 16.262 7.55737 16.4921C7.55737 16.7222 7.64876 16.9428 7.81144 17.1056L12.9362 22.2303C13.0989 22.3928 13.3194 22.484 13.5493 22.484C13.7792 22.484 13.9997 22.3928 14.1624 22.2303L23.2104 13.1823C23.3731 13.0196 23.4645 12.7989 23.4645 12.5688C23.4645 12.3387 23.3731 12.1181 23.2104 11.9553L18.0857 6.83133C17.923 6.66888 17.7025 6.57764 17.4726 6.57764C17.2426 6.57764 17.0221 6.66888 16.8594 6.83133L7.81144 15.8786Z" fill="url(#paint7_linear_4_161)"/>
</g>
<path d="M19.2361 14.2938C20.2806 13.2493 20.3463 11.6217 19.383 10.6584C18.4197 9.69503 16.7921 9.7608 15.7476 10.8053C14.7031 11.8497 14.6374 13.4773 15.6007 14.4407C16.564 15.404 18.1917 15.3382 19.2361 14.2938Z" fill="#289D5B"/>
<path d="M19.2361 14.2938C20.2806 13.2493 20.3463 11.6217 19.383 10.6584C18.4197 9.69503 16.7921 9.7608 15.7476 10.8053C14.7031 11.8497 14.6374 13.4773 15.6007 14.4407C16.564 15.404 18.1917 15.3382 19.2361 14.2938Z" fill="url(#paint8_linear_4_161)"/>
<path d="M19.2361 14.2938C20.2806 13.2493 20.3463 11.6217 19.383 10.6584C18.4197 9.69503 16.7921 9.7608 15.7476 10.8053C14.7031 11.8497 14.6374 13.4773 15.6007 14.4407C16.564 15.404 18.1917 15.3382 19.2361 14.2938Z" fill="url(#paint9_radial_4_161)"/>
<g filter="url(#filter4_f_4_161)">
<path d="M11.5359 11.3987L13.2361 9.69849L20.5276 16.99L18.7636 18.754L11.5359 11.3987Z" fill="#127531"/>
</g>
<g filter="url(#filter5_f_4_161)">
<path d="M20.2269 20.0771L21.9204 18.3836L20.5277 16.9908L18.7637 18.7533L20.2269 20.0771Z" fill="#0B3F2E"/>
</g>
<path d="M11.3906 11.176L13.18 9.38669L22.1256 18.3323L20.3362 20.1216L11.3906 11.176Z" fill="url(#paint10_linear_4_161)"/>
<path d="M11.3906 11.176L13.18 9.38669L22.1256 18.3323L20.3362 20.1216L11.3906 11.176Z" fill="url(#paint11_linear_4_161)"/>
<g filter="url(#filter6_dii_4_161)">
<path d="M11.1811 15.8928C11.1186 15.8255 11.0845 15.7366 11.0862 15.6447C11.0879 15.5528 11.1252 15.4652 11.1903 15.4002C11.2553 15.3353 11.343 15.2981 11.4349 15.2966C11.5268 15.295 11.6157 15.3292 11.6829 15.3918L11.9589 15.6678C12.4689 15.3581 12.9879 15.4841 13.2864 15.7271C13.4566 15.8651 13.4769 16.0541 13.3561 16.2033C13.298 16.2747 13.214 16.3201 13.1224 16.3295C13.0309 16.3389 12.9393 16.3116 12.8679 16.2536C12.7704 16.1741 12.4666 15.9648 12.0901 16.3421C11.5501 16.8821 12.2499 17.6073 12.8761 16.9811C13.1439 16.7126 13.5834 16.5836 13.8901 16.6346C14.2096 16.6863 14.4571 16.8468 14.6326 17.0808C14.8989 17.5031 14.8636 17.9471 14.6229 18.3318L14.8884 18.5973C14.9511 18.6645 14.9852 18.7535 14.9837 18.8453C14.9821 18.9372 14.9449 19.0249 14.88 19.09C14.8151 19.155 14.7274 19.1923 14.6355 19.194C14.5437 19.1957 14.4547 19.1617 14.3874 19.0991L14.1271 18.8388C13.7019 19.1141 13.2024 19.1118 12.7749 18.7751C12.6249 18.6558 12.5874 18.4496 12.7059 18.2996C12.8244 18.1496 13.0434 18.1233 13.1934 18.2418C13.2684 18.3011 13.3891 18.3693 13.5204 18.3828C13.6321 18.3956 13.7716 18.3663 13.9426 18.1953C14.1564 17.9816 14.1909 17.7903 14.1571 17.6486C14.0836 17.2428 13.5924 17.1401 13.3021 17.4296C12.8986 17.8016 12.6099 17.8938 12.2866 17.8796C12.0172 17.8678 11.7617 17.7569 11.5689 17.5683C11.3954 17.3928 11.2858 17.1641 11.2576 16.9188C11.2329 16.6518 11.3007 16.3844 11.4496 16.1613L11.1811 15.8928Z" fill="url(#paint12_linear_4_161)"/>
</g>
<g filter="url(#filter7_ii_4_161)">
<path d="M19.8669 21.4172H21.2027V25.3172C21.2027 25.367 21.1829 25.4147 21.1478 25.4498C21.1126 25.485 21.0649 25.5047 21.0152 25.5047H20.9927C20.6943 25.5047 20.4082 25.3862 20.1972 25.1752C19.9862 24.9643 19.8677 24.6781 19.8677 24.3797L19.8669 21.4172Z" fill="#C8C2C3"/>
</g>
<g filter="url(#filter8_ii_4_161)">
<path d="M18.532 21.4172H19.867V24.2822C19.867 24.332 19.8472 24.3797 19.8121 24.4148C19.7769 24.45 19.7292 24.4697 19.6795 24.4697H19.657C19.3586 24.4697 19.0725 24.3512 18.8615 24.1402C18.6505 23.9293 18.532 23.6431 18.532 23.3447V21.4172Z" fill="#C8C2C3"/>
</g>
<g filter="url(#filter9_ii_4_161)">
<path d="M20.5277 17.9028C19.9996 17.9018 19.4926 18.1107 19.1183 18.4834C18.7441 18.8561 18.5332 19.3622 18.532 19.8903V21.4541C18.532 21.5035 18.5417 21.5523 18.5607 21.5979C18.5796 21.6435 18.6074 21.6849 18.6423 21.7198C18.6773 21.7546 18.7188 21.7822 18.7645 21.801C18.8102 21.8197 18.8591 21.8293 18.9085 21.8291H20.881C20.9205 21.8289 20.9597 21.8365 20.9962 21.8515C21.0328 21.8665 21.0661 21.8885 21.0941 21.9164C21.1221 21.9443 21.1443 21.9774 21.1595 22.0139C21.1747 22.0504 21.1825 22.0896 21.1825 22.1291V25.3533C21.1825 25.9743 21.688 26.4783 22.312 26.4783H22.3345C22.3592 26.4785 22.3838 26.4738 22.4067 26.4645C22.4296 26.4552 22.4505 26.4414 22.468 26.4239C22.4856 26.4065 22.4996 26.3858 22.5091 26.3629C22.5186 26.3401 22.5235 26.3156 22.5235 26.2908V19.8911C22.523 19.6295 22.471 19.3706 22.3704 19.1291C22.2699 18.8876 22.1227 18.6683 21.9374 18.4836C21.7521 18.299 21.5322 18.1527 21.2903 18.053C21.0485 17.9534 20.7893 17.9023 20.5277 17.9028Z" fill="#DBD7D7"/>
</g>
<defs>
<filter id="filter0_i_4_161" x="6.34912" y="10.6213" width="4.46167" height="1.45996" filterUnits="userSpaceOnUse" color-interpolation-filters="sRGB">
<feFlood flood-opacity="0" result="BackgroundImageFix"/>
<feBlend mode="normal" in="SourceGraphic" in2="BackgroundImageFix" result="shape"/>
<feColorMatrix in="SourceAlpha" type="matrix" values="0 0 0 0 0 0 0 0 0 0 0 0 0 0 0 0 0 0 127 0" result="hardAlpha"/>
<feOffset dx="-0.375" dy="-0.125"/>
<feGaussianBlur stdDeviation="0.25"/>
<feComposite in2="hardAlpha" operator="arithmetic" k2="-1" k3="1"/>
<feColorMatrix type="matrix" values="0 0 0 0 0.647059 0 0 0 0 0.623529 0 0 0 0 0.623529 0 0 0 1 0"/>
<feBlend mode="normal" in2="shape" result="effect1_innerShadow_4_161"/>
</filter>
<filter id="filter1_i_4_161" x="7.3833" y="11.9563" width="3.42749" height="1.4458" filterUnits="userSpaceOnUse" color-interpolation-filters="sRGB">
<feFlood flood-opacity="0" result="BackgroundImageFix"/>
<feBlend mode="normal" in="SourceGraphic" in2="BackgroundImageFix" result="shape"/>
<feColorMatrix in="SourceAlpha" type="matrix" values="0 0 0 0 0 0 0 0 0 0 0 0 0 0 0 0 0 0 127 0" result="hardAlpha"/>
<feOffset dx="-0.375" dy="-0.125"/>
<feGaussianBlur stdDeviation="0.1875"/>
<feComposite in2="hardAlpha" operator="arithmetic" k2="-1" k3="1"/>
<feColorMatrix type="matrix" values="0 0 0 0 0.580392 0 0 0 0 0.611765 0 0 0 0 0.584314 0 0 0 1 0"/>
<feBlend mode="normal" in2="shape" result="effect1_innerShadow_4_161"/>
</filter>
<filter id="filter2_i_4_161" x="5.74976" y="9.30054" width="8.57617" height="4.10144" filterUnits="userSpaceOnUse" color-interpolation-filters="sRGB">
<feFlood flood-opacity="0" result="BackgroundImageFix"/>
<feBlend mode="normal" in="SourceGraphic" in2="BackgroundImageFix" result="shape"/>
<feColorMatrix in="SourceAlpha" type="matrix" values="0 0 0 0 0 0 0 0 0 0 0 0 0 0 0 0 0 0 127 0" result="hardAlpha"/>
<feOffset dy="-0.125"/>
<feGaussianBlur stdDeviation="0.1875"/>
<feComposite in2="hardAlpha" operator="arithmetic" k2="-1" k3="1"/>
<feColorMatrix type="matrix" values="0 0 0 0 0.658824 0 0 0 0 0.623529 0 0 0 0 0.627451 0 0 0 1 0"/>
<feBlend mode="normal" in2="shape" result="effect1_innerShadow_4_161"/>
</filter>
<filter id="filter3_iii_4_161" x="7.45737" y="6.57764" width="16.1072" height="16.0064" filterUnits="userSpaceOnUse" color-interpolation-filters="sRGB">
<feFlood flood-opacity="0" result="BackgroundImageFix"/>
<feBlend mode="normal" in="SourceGraphic" in2="BackgroundImageFix" result="shape"/>
<feColorMatrix in="SourceAlpha" type="matrix" values="0 0 0 0 0 0 0 0 0 0 0 0 0 0 0 0 0 0 127 0" result="hardAlpha"/>
<feOffset dy="0.1"/>
<feGaussianBlur stdDeviation="0.0625"/>
<feComposite in2="hardAlpha" operator="arithmetic" k2="-1" k3="1"/>
<feColorMatrix type="matrix" values="0 0 0 0 0.0941176 0 0 0 0 0.509804 0 0 0 0 0.254902 0 0 0 1 0"/>
<feBlend mode="normal" in2="shape" result="effect1_innerShadow_4_161"/>
<feColorMatrix in="SourceAlpha" type="matrix" values="0 0 0 0 0 0 0 0 0 0 0 0 0 0 0 0 0 0 127 0" result="hardAlpha"/>
<feOffset dx="-0.1"/>
<feGaussianBlur stdDeviation="0.0625"/>
<feComposite in2="hardAlpha" operator="arithmetic" k2="-1" k3="1"/>
<feColorMatrix type="matrix" values="0 0 0 0 0.0941176 0 0 0 0 0.509804 0 0 0 0 0.254902 0 0 0 1 0"/>
<feBlend mode="normal" in2="effect1_innerShadow_4_161" result="effect2_innerShadow_4_161"/>
<feColorMatrix in="SourceAlpha" type="matrix" values="0 0 0 0 0 0 0 0 0 0 0 0 0 0 0 0 0 0 127 0" result="hardAlpha"/>
<feOffset dx="0.1"/>
<feGaussianBlur stdDeviation="0.0625"/>
<feComposite in2="hardAlpha" operator="arithmetic" k2="-1" k3="1"/>
<feColorMatrix type="matrix" values="0 0 0 0 0.172549 0 0 0 0 0.709804 0 0 0 0 0.4 0 0 0 1 0"/>
<feBlend mode="normal" in2="effect2_innerShadow_4_161" result="effect3_innerShadow_4_161"/>
</filter>
<filter id="filter4_f_4_161" x="11.3359" y="9.49849" width="9.3917" height="9.45554" filterUnits="userSpaceOnUse" color-interpolation-filters="sRGB">
<feFlood flood-opacity="0" result="BackgroundImageFix"/>
<feBlend mode="normal" in="SourceGraphic" in2="BackgroundImageFix" result="shape"/>
<feGaussianBlur stdDeviation="0.1" result="effect1_foregroundBlur_4_161"/>
</filter>
<filter id="filter5_f_4_161" x="18.6387" y="16.8658" width="3.40674" height="3.3363" filterUnits="userSpaceOnUse" color-interpolation-filters="sRGB">
<feFlood flood-opacity="0" result="BackgroundImageFix"/>
<feBlend mode="normal" in="SourceGraphic" in2="BackgroundImageFix" result="shape"/>
<feGaussianBlur stdDeviation="0.0625" result="effect1_foregroundBlur_4_161"/>
</filter>
<filter id="filter6_dii_4_161" x="10.9612" y="15.2465" width="4.07246" height="4.07258" filterUnits="userSpaceOnUse" color-interpolation-filters="sRGB">
<feFlood flood-opacity="0" result="BackgroundImageFix"/>
<feColorMatrix in="SourceAlpha" type="matrix" values="0 0 0 0 0 0 0 0 0 0 0 0 0 0 0 0 0 0 127 0" result="hardAlpha"/>
<feOffset dx="-0.05" dy="0.05"/>
<feGaussianBlur stdDeviation="0.0375"/>
<feComposite in2="hardAlpha" operator="out"/>
<feColorMatrix type="matrix" values="0 0 0 0 0.0901961 0 0 0 0 0.521569 0 0 0 0 0.223529 0 0 0 1 0"/>
<feBlend mode="normal" in2="BackgroundImageFix" result="effect1_dropShadow_4_161"/>
<feBlend mode="normal" in="SourceGraphic" in2="effect1_dropShadow_4_161" result="shape"/>
<feColorMatrix in="SourceAlpha" type="matrix" values="0 0 0 0 0 0 0 0 0 0 0 0 0 0 0 0 0 0 127 0" result="hardAlpha"/>
<feOffset dx="0.05" dy="-0.05"/>
<feGaussianBlur stdDeviation="0.025"/>
<feComposite in2="hardAlpha" operator="arithmetic" k2="-1" k3="1"/>
<feColorMatrix type="matrix" values="0 0 0 0 0.784314 0 0 0 0 0.760784 0 0 0 0 0.752941 0 0 0 1 0"/>
<feBlend mode="normal" in2="shape" result="effect2_innerShadow_4_161"/>
<feColorMatrix in="SourceAlpha" type="matrix" values="0 0 0 0 0 0 0 0 0 0 0 0 0 0 0 0 0 0 127 0" result="hardAlpha"/>
<feOffset dx="-0.05" dy="0.05"/>
<feGaussianBlur stdDeviation="0.025"/>
<feComposite in2="hardAlpha" operator="arithmetic" k2="-1" k3="1"/>
<feColorMatrix type="matrix" values="0 0 0 0 1 0 0 0 0 0.996078 0 0 0 0 0.992157 0 0 0 1 0"/>
<feBlend mode="normal" in2="effect2_innerShadow_4_161" result="effect3_innerShadow_4_161"/>
</filter>
<filter id="filter7_ii_4_161" x="19.7169" y="21.2672" width="1.63569" height="4.23752" filterUnits="userSpaceOnUse" color-interpolation-filters="sRGB">
<feFlood flood-opacity="0" result="BackgroundImageFix"/>
<feBlend mode="normal" in="SourceGraphic" in2="BackgroundImageFix" result="shape"/>
<feColorMatrix in="SourceAlpha" type="matrix" values="0 0 0 0 0 0 0 0 0 0 0 0 0 0 0 0 0 0 127 0" result="hardAlpha"/>
<feOffset dx="0.15" dy="-0.15"/>
<feGaussianBlur stdDeviation="0.1875"/>
<feComposite in2="hardAlpha" operator="arithmetic" k2="-1" k3="1"/>
<feColorMatrix type="matrix" values="0 0 0 0 0.658824 0 0 0 0 0.631373 0 0 0 0 0.635294 0 0 0 1 0"/>
<feBlend mode="normal" in2="shape" result="effect1_innerShadow_4_161"/>
<feColorMatrix in="SourceAlpha" type="matrix" values="0 0 0 0 0 0 0 0 0 0 0 0 0 0 0 0 0 0 127 0" result="hardAlpha"/>
<feOffset dx="-0.15" dy="-0.15"/>
<feGaussianBlur stdDeviation="0.1875"/>
<feComposite in2="hardAlpha" operator="arithmetic" k2="-1" k3="1"/>
<feColorMatrix type="matrix" values="0 0 0 0 0.721569 0 0 0 0 0.682353 0 0 0 0 0.690196 0 0 0 1 0"/>
<feBlend mode="normal" in2="effect1_innerShadow_4_161" result="effect2_innerShadow_4_161"/>
</filter>
<filter id="filter8_ii_4_161" x="18.382" y="21.2672" width="1.63496" height="3.20249" filterUnits="userSpaceOnUse" color-interpolation-filters="sRGB">
<feFlood flood-opacity="0" result="BackgroundImageFix"/>
<feBlend mode="normal" in="SourceGraphic" in2="BackgroundImageFix" result="shape"/>
<feColorMatrix in="SourceAlpha" type="matrix" values="0 0 0 0 0 0 0 0 0 0 0 0 0 0 0 0 0 0 127 0" result="hardAlpha"/>
<feOffset dx="0.15" dy="-0.15"/>
<feGaussianBlur stdDeviation="0.1875"/>
<feComposite in2="hardAlpha" operator="arithmetic" k2="-1" k3="1"/>
<feColorMatrix type="matrix" values="0 0 0 0 0.611765 0 0 0 0 0.603922 0 0 0 0 0.596078 0 0 0 1 0"/>
<feBlend mode="normal" in2="shape" result="effect1_innerShadow_4_161"/>
<feColorMatrix in="SourceAlpha" type="matrix" values="0 0 0 0 0 0 0 0 0 0 0 0 0 0 0 0 0 0 127 0" result="hardAlpha"/>
<feOffset dx="-0.15" dy="-0.15"/>
<feGaussianBlur stdDeviation="0.1875"/>
<feComposite in2="hardAlpha" operator="arithmetic" k2="-1" k3="1"/>
<feColorMatrix type="matrix" values="0 0 0 0 0.635294 0 0 0 0 0.611765 0 0 0 0 0.607843 0 0 0 1 0"/>
<feBlend mode="normal" in2="effect1_innerShadow_4_161" result="effect2_innerShadow_4_161"/>
</filter>
<filter id="filter9_ii_4_161" x="18.282" y="17.8278" width="4.31646" height="8.65056" filterUnits="userSpaceOnUse" color-interpolation-filters="sRGB">
<feFlood flood-opacity="0" result="BackgroundImageFix"/>
<feBlend mode="normal" in="SourceGraphic" in2="BackgroundImageFix" result="shape"/>
<feColorMatrix in="SourceAlpha" type="matrix" values="0 0 0 0 0 0 0 0 0 0 0 0 0 0 0 0 0 0 127 0" result="hardAlpha"/>
<feOffset dx="0.075" dy="-0.075"/>
<feGaussianBlur stdDeviation="0.125"/>
<feComposite in2="hardAlpha" operator="arithmetic" k2="-1" k3="1"/>
<feColorMatrix type="matrix" values="0 0 0 0 0.729412 0 0 0 0 0.678431 0 0 0 0 0.686275 0 0 0 1 0"/>
<feBlend mode="normal" in2="shape" result="effect1_innerShadow_4_161"/>
<feColorMatrix in="SourceAlpha" type="matrix" values="0 0 0 0 0 0 0 0 0 0 0 0 0 0 0 0 0 0 127 0" result="hardAlpha"/>
<feOffset dx="-0.25"/>
<feGaussianBlur stdDeviation="0.1875"/>
<feComposite in2="hardAlpha" operator="arithmetic" k2="-1" k3="1"/>
<feColorMatrix type="matrix" values="0 0 0 0 0.964706 0 0 0 0 0.964706 0 0 0 0 0.956863 0 0 0 1 0"/>
<feBlend mode="normal" in2="effect1_innerShadow_4_161" result="effect2_innerShadow_4_161"/>
</filter>
<radialGradient id="paint0_radial_4_161" cx="0" cy="0" r="1" gradientUnits="userSpaceOnUse" gradientTransform="translate(6.97451 9.57779) scale(5.84428 1.03399)">
<stop stop-color="#E3E1E1"/>
<stop offset="1" stop-color="#E3E1E1" stop-opacity="0"/>
</radialGradient>
<linearGradient id="paint1_linear_4_161" x1="25.1729" y1="14.2881" x2="14.9242" y2="24.5367" gradientUnits="userSpaceOnUse">
<stop stop-color="#12724A"/>
<stop offset="1" stop-color="#116245"/>
</linearGradient>
<linearGradient id="paint2_linear_4_161" x1="25.5563" y1="13.1887" x2="24.4702" y2="14.2748" gradientUnits="userSpaceOnUse">
<stop stop-color="#1C8F60"/>
<stop offset="1" stop-color="#1C8F60" stop-opacity="0"/>
</linearGradient>
<linearGradient id="paint3_linear_4_161" x1="14.1192" y1="24.524" x2="15.2435" y2="23.3997" gradientUnits="userSpaceOnUse">
<stop offset="0.557" stop-color="#195840"/>
<stop offset="1" stop-color="#195840" stop-opacity="0"/>
</linearGradient>
<radialGradient id="paint4_radial_4_161" cx="0" cy="0" r="1" gradientUnits="userSpaceOnUse" gradientTransform="translate(19.3605 19.1852) rotate(114.806) scale(3.07255 2.91529)">
<stop offset="0.307" stop-color="#0E593C"/>
<stop offset="1" stop-color="#0E593C" stop-opacity="0"/>
</radialGradient>
<radialGradient id="paint5_radial_4_161" cx="0" cy="0" r="1" gradientUnits="userSpaceOnUse" gradientTransform="translate(19.3131 20.1233) rotate(138.249) scale(3.80129 0.806062)">
<stop offset="0.396" stop-color="#0F4F35"/>
<stop offset="1" stop-color="#0F4F35" stop-opacity="0"/>
</radialGradient>
<radialGradient id="paint6_radial_4_161" cx="0" cy="0" r="1" gradientUnits="userSpaceOnUse" gradientTransform="translate(6.62362 16.5306) rotate(3.2593) scale(11.2383 14.7375)">
<stop stop-color="#31DE74"/>
<stop offset="1" stop-color="#20CF5E"/>
</radialGradient>
<linearGradient id="paint7_linear_4_161" x1="16.4124" y1="7.55958" x2="15.1599" y2="20.8241" gradientUnits="userSpaceOnUse">
<stop stop-color="#24A35B"/>
<stop offset="1" stop-color="#27A05A"/>
</linearGradient>
<linearGradient id="paint8_linear_4_161" x1="17.0766" y1="13.3869" x2="17.8053" y2="12.6582" gradientUnits="userSpaceOnUse">
<stop offset="0.228" stop-color="#269553"/>
<stop offset="1" stop-color="#269553" stop-opacity="0"/>
</linearGradient>
<radialGradient id="paint9_radial_4_161" cx="0" cy="0" r="1" gradientUnits="userSpaceOnUse" gradientTransform="translate(17.7671 12.8248) rotate(-85.802) scale(2.79336 2.74561)">
<stop offset="0.587" stop-color="#249755" stop-opacity="0"/>
<stop offset="0.987" stop-color="#16793D"/>
</radialGradient>
<linearGradient id="paint10_linear_4_161" x1="12.9625" y1="10.9586" x2="20.0424" y2="18.0385" gradientUnits="userSpaceOnUse">
<stop stop-color="#FFD425"/>
<stop offset="1" stop-color="#FFAD24"/>
</linearGradient>
<linearGradient id="paint11_linear_4_161" x1="21.6652" y1="18.7926" x2="20.0933" y2="17.2207" gradientUnits="userSpaceOnUse">
<stop offset="0.894" stop-color="#CC8139"/>
<stop offset="1" stop-color="#CC8139" stop-opacity="0"/>
</linearGradient>
<linearGradient id="paint12_linear_4_161" x1="11.1781" y1="15.3948" x2="14.8854" y2="19.1021" gradientUnits="userSpaceOnUse">
<stop stop-color="#EFEAEA"/>
<stop offset="1" stop-color="#EAE3E3"/>
</linearGradient>
</defs>
</svg>
