<svg width="20" height="24" viewBox="0 0 20 24" fill="none" xmlns="http://www.w3.org/2000/svg">
<path d="M20 3.93994L10 0.439941L0 3.93994V11.9999C0 16.1269 2.534 19.0119 4.896 20.8029C6.32208 21.8734 7.88622 22.7463 9.546 23.3979C9.65933 23.4406 9.77333 23.4813 9.888 23.5199L10 23.5599L10.114 23.5199C10.3327 23.444 10.5494 23.3626 10.764 23.2759C12.3097 22.6391 13.7681 21.8081 15.104 20.8029C17.467 19.0119 20 16.1269 20 11.9999V3.93994ZM9.001 15.4149L4.76 11.1719L6.174 9.75694L9.002 12.5859L14.659 6.92894L16.074 8.34294L9.001 15.4149Z" fill="#1F2937"/>
</svg>
