<svg width="32" height="32" viewBox="0 0 32 32" fill="none" xmlns="http://www.w3.org/2000/svg">
<path d="M7.00008 6.66663C5.85081 6.66663 4.74861 7.12317 3.93595 7.93583C3.12329 8.74849 2.66675 9.85069 2.66675 11V12.6666H29.3334V11C29.3334 10.4309 29.2213 9.86741 29.0036 9.34166C28.7858 8.81592 28.4666 8.33822 28.0642 7.93583C27.6618 7.53344 27.1841 7.21425 26.6584 6.99648C26.1326 6.77871 25.5691 6.66663 25.0001 6.66663H7.00008ZM2.66675 21V14.6666H24.6667C23.7397 14.6665 22.8335 14.9425 22.0639 15.4594C21.2943 15.9764 20.6962 16.7108 20.3457 17.5691C19.9952 18.4274 19.9083 19.3707 20.0961 20.2786C20.2839 21.1864 20.7379 22.0178 21.4001 22.6666H21.0307C19.3467 22.6666 17.9241 23.792 17.4787 25.3333H7.00008C5.85081 25.3333 4.74861 24.8767 3.93595 24.0641C3.12329 23.2514 2.66675 22.1492 2.66675 21ZM28.0001 19.3333C28.0001 20.2173 27.6489 21.0652 27.0238 21.6903C26.3986 22.3154 25.5508 22.6666 24.6667 22.6666C23.7827 22.6666 22.9348 22.3154 22.3097 21.6903C21.6846 21.0652 21.3334 20.2173 21.3334 19.3333C21.3334 18.4492 21.6846 17.6014 22.3097 16.9763C22.9348 16.3511 23.7827 16 24.6667 16C25.5508 16 26.3986 16.3511 27.0238 16.9763C27.6489 17.6014 28.0001 18.4492 28.0001 19.3333ZM30.6667 26.5C30.6667 28.5746 28.9521 30.6666 24.6667 30.6666C20.3814 30.6666 18.6667 28.5826 18.6667 26.5V26.3626C18.6667 25.056 19.7254 24 21.0307 24H28.3027C29.6094 24 30.6667 25.0573 30.6667 26.3626V26.5Z" fill="#2A6877"/>
</svg>
