<svg width="48" height="48" viewBox="0 0 48 48" fill="none" xmlns="http://www.w3.org/2000/svg">
<rect width="48" height="48" rx="10" fill="#C9E4DE" fill-opacity="0.5"/>
<path fill-rule="evenodd" clip-rule="evenodd" d="M32.121 19.879C33 20.757 33 22.172 33 25V26C33 29.771 33 31.657 31.828 32.828C30.656 33.999 28.771 34 25 34H23C19.229 34 17.343 34 16.172 32.828C15.001 31.656 15 29.771 15 26V25C15 22.172 15 20.757 15.879 19.879C16.757 19 18.172 19 21 19H27C29.828 19 31.243 19 32.121 19.879ZM24 27C23.7348 27 23.4804 26.8946 23.2929 26.7071C23.1054 26.5196 23 26.2652 23 26C23 25.7348 23.1054 25.4804 23.2929 25.2929C23.4804 25.1054 23.7348 25 24 25C24.2652 25 24.5196 25.1054 24.7071 25.2929C24.8946 25.4804 25 25.7348 25 26C25 26.2652 24.8946 26.5196 24.7071 26.7071C24.5196 26.8946 24.2652 27 24 27ZM21 26C20.9997 26.6207 21.1919 27.2261 21.5501 27.733C21.9083 28.2398 22.4148 28.6231 23 28.83V31H25V28.83C25.5189 28.6468 25.9774 28.3245 26.3254 27.8984C26.6734 27.4722 26.8976 26.9585 26.9734 26.4135C27.0492 25.8686 26.9737 25.3132 26.7552 24.8082C26.5366 24.3033 26.1835 23.8681 25.7343 23.5503C25.2851 23.2325 24.7572 23.0443 24.2083 23.0063C23.6593 22.9683 23.1105 23.082 22.6219 23.3348C22.1332 23.5877 21.7234 23.9701 21.4374 24.4401C21.1513 24.9101 21 25.4498 21 26Z" fill="#1D4A54"/>
<path d="M19.5001 20C19.351 19.1061 19.4631 18.188 19.8228 17.3561C20.1825 16.5242 20.7746 15.8138 21.5281 15.31L21.9021 15.06C22.8871 14.4019 24.0609 14.0853 25.2433 14.1589C26.4256 14.2324 27.5512 14.692 28.4471 15.467L29.3301 16.231" stroke="#1D4A54" stroke-width="2" stroke-linecap="round"/>
</svg>
