<svg width="48" height="48" viewBox="0 0 48 48" fill="none" xmlns="http://www.w3.org/2000/svg">
<rect width="48" height="48" rx="10" fill="#C9E4DE" fill-opacity="0.5"/>
<path d="M31.6295 19.2857H29.9512L30.8375 18.2289C30.8741 18.1854 30.8919 18.1292 30.8871 18.0727C30.8823 18.0161 30.8552 17.9638 30.8118 17.9271L28.6184 16.0886L25.9355 19.2857H24.2564L27.6335 15.2606L26.8715 14.622C26.8281 14.5854 26.7719 14.5676 26.7154 14.5724C26.6588 14.5773 26.6064 14.6043 26.5698 14.6477L22.6784 19.2857H21.0001L25.5858 13.8214C25.8415 13.5168 26.2077 13.3261 26.6039 13.2914C27.0001 13.2567 27.3939 13.3807 27.6987 13.6363L31.6381 16.9423C31.789 17.0689 31.9135 17.2241 32.0045 17.3989C32.0954 17.5737 32.151 17.7647 32.1681 17.961C32.1852 18.1573 32.1635 18.355 32.1042 18.5429C32.0449 18.7308 31.9491 18.9051 31.8224 19.056L31.6295 19.2857ZM16.7144 17.1429H21.6772L20.5972 18.4286H16.7144C16.4871 18.4286 16.269 18.5189 16.1083 18.6796C15.9476 18.8404 15.8572 19.0584 15.8572 19.2857C15.8572 19.513 15.9476 19.7311 16.1083 19.8918C16.269 20.0525 16.4871 20.1429 16.7144 20.1429H30.2144C31.0669 20.1429 31.8844 20.4815 32.4872 21.0843C33.09 21.6871 33.4287 22.5047 33.4287 23.3571V30.2143C33.4287 31.0668 33.09 31.8843 32.4872 32.4871C31.8844 33.0899 31.0669 33.4286 30.2144 33.4286H17.7858C16.9333 33.4286 16.1158 33.0899 15.513 32.4871C14.9102 31.8843 14.5715 31.0668 14.5715 30.2143V19.2857C14.5715 18.7174 14.7973 18.1723 15.1992 17.7705C15.601 17.3686 16.1461 17.1429 16.7144 17.1429ZM27.4287 26.7857C27.4287 27.1406 27.7167 27.4286 28.0715 27.4286H30.2144C30.3849 27.4286 30.5484 27.3608 30.669 27.2403C30.7895 27.1197 30.8572 26.9562 30.8572 26.7857C30.8572 26.6152 30.7895 26.4517 30.669 26.3311C30.5484 26.2106 30.3849 26.1429 30.2144 26.1429H28.0715C27.901 26.1429 27.7375 26.2106 27.617 26.3311C27.4964 26.4517 27.4287 26.6152 27.4287 26.7857Z" fill="#1D4A54"/>
</svg>
